HIERARCHY
ROOT root
{
	OFFSET 0.00 0.00 0.00
	CHANNELS 6 Xposition Yposition Zposition Zrotation Xrotation Yrotation
	JOINT lowerback
	{
		OFFSET 0 0 0
		CHANNELS 6 Xposition Yposition Zposition Zrotation Xrotation Yrotation
		JOINT upperback
		{
			OFFSET -0.214371 12.3768 -1.12219
			CHANNELS 6 Xposition Yposition Zposition Zrotation Xrotation Yrotation
			JOINT thorax
			{
				OFFSET -0.00137213 12.3873 0.296195
				CHANNELS 6 Xposition Yposition Zposition Zrotation Xrotation Yrotation
				JOINT lowerneck
				{
					OFFSET 0.0883157 12.5016 0.82912
					CHANNELS 6 Xposition Yposition Zposition Zrotation Xrotation Yrotation
					JOINT upperneck
					{
						OFFSET -1 10.1794 0.943522
						CHANNELS 6 Xposition Yposition Zposition Zrotation Xrotation Yrotation
						JOINT head
						{
							OFFSET 0.667525 10.2797 -1.57149
							CHANNELS 6 Xposition Yposition Zposition Zrotation Xrotation Yrotation
							End Site
							{
								OFFSET 0 0 0
							}
						}
					}
				}
				JOINT lclavicle
				{
					OFFSET 0.0883157 12.5016 0.82912
					CHANNELS 6 Xposition Yposition Zposition Zrotation Xrotation Yrotation
					JOINT lhumerus
					{
						OFFSET 20.61 4.45006 1.43784
						CHANNELS 6 Xposition Yposition Zposition Zrotation Xrotation Yrotation
						JOINT lradius
						{
							OFFSET 0 -30.3438 0
							CHANNELS 6 Xposition Yposition Zposition Zrotation Xrotation Yrotation
							JOINT lwrist
							{
								OFFSET 0 -18.964 0
								CHANNELS 6 Xposition Yposition Zposition Zrotation Xrotation Yrotation
								JOINT lhand
								{
									OFFSET 0 -9.48199 0
									CHANNELS 6 Xposition Yposition Zposition Zrotation Xrotation Yrotation
									JOINT lfingers
									{
										OFFSET 0 -3.17138 0
										CHANNELS 6 Xposition Yposition Zposition Zrotation Xrotation Yrotation
										End Site
										{
											OFFSET 0 -2.55685 0
										}
									}
								}
								JOINT lthumb
								{
									OFFSET 0 -9.48199 0
									CHANNELS 6 Xposition Yposition Zposition Zrotation Xrotation Yrotation
									End Site
									{
										OFFSET 0 -3.67114 0
									}
								}
							}
						}
					}
				}
				JOINT rclavicle
				{
					OFFSET 0.0883157 12.5016 0.82912
					CHANNELS 6 Xposition Yposition Zposition Zrotation Xrotation Yrotation
					JOINT rhumerus
					{
						OFFSET -20.61 4.45 1.44
						CHANNELS 6 Xposition Yposition Zposition Zrotation Xrotation Yrotation
						JOINT rradius
						{
							OFFSET 0 -29.5102 0
							CHANNELS 6 Xposition Yposition Zposition Zrotation Xrotation Yrotation
							JOINT rwrist
							{
								OFFSET 0 -19.2342 0
								CHANNELS 6 Xposition Yposition Zposition Zrotation Xrotation Yrotation
								JOINT rhand
								{
									OFFSET 0 -9.61712 0
									CHANNELS 6 Xposition Yposition Zposition Zrotation Xrotation Yrotation
									JOINT rfingers
									{
										OFFSET 0 -3.29215 0
										CHANNELS 6 Xposition Yposition Zposition Zrotation Xrotation Yrotation
										End Site
										{
											OFFSET 0 -2.557 0
										}
									}
								}
								JOINT rthumb
								{
									OFFSET 0 -9.61712 0
									CHANNELS 6 Xposition Yposition Zposition Zrotation Xrotation Yrotation
									End Site
									{
										OFFSET 0 -3.671 0
									}
								}
							}
						}
					}
				}
			}
		}
	}
	JOINT rfemur
	{
		OFFSET -8.46272 -9.62775 4.76248
		CHANNELS 6 Xposition Yposition Zposition Zrotation Xrotation Yrotation
		JOINT rtibia
		{
			OFFSET 1.00552e-005 -38.0331 0
			CHANNELS 6 Xposition Yposition Zposition Zrotation Xrotation Yrotation
			JOINT rfoot
			{
				OFFSET 1.14428e-005 -43.2815 0
				CHANNELS 6 Xposition Yposition Zposition Zrotation Xrotation Yrotation
				JOINT rtoes
				{
					OFFSET 0 -14.1868 -3.08763
					CHANNELS 6 Xposition Yposition Zposition Zrotation Xrotation Yrotation
					End Site
					{
						OFFSET 0 -7.27332 0
					}
				}
			}
		}
	}
	JOINT lfemur
	{
		OFFSET 9.10607 -9.62778 4.76249
		CHANNELS 6 Xposition Yposition Zposition Zrotation Xrotation Yrotation
		JOINT ltibia
		{
			OFFSET -1.01399e-005 -38.3535 0
			CHANNELS 6 Xposition Yposition Zposition Zrotation Xrotation Yrotation
			JOINT lfoot
			{
				OFFSET -1.12937e-005 -42.7176 0
				CHANNELS 6 Xposition Yposition Zposition Zrotation Xrotation Yrotation
				JOINT ltoes
				{
					OFFSET 0 -13.9965 -2.83857
					CHANNELS 6 Xposition Yposition Zposition Zrotation Xrotation Yrotation
					End Site
					{
						OFFSET 0 -7.16348 0
					}
				}
			}
		}
	}
}
MOTION
Frames: 10
Frame Time: 0.00833333
1.69963	96.3784	52.7601	-3.05552	1.35822	3.06737	0 0 0 5.33651	-2.49103	0.0323043	-0.214371 12.3768 -1.12219 -0.551667	2.3263	-0.163419	-0.00137213 12.3873 0.296195 -3.58657	3.79195	0.0726487	0.0883157 12.5016 0.82912 -6.83147	-9.24173	-4.91287	-1 10.1794 0.943522 12.7954	5.80734	-6.80306	0.667525 10.2797 -1.57149 4.46497	3.89316	-2.93472	0.0883157 12.5016 0.82912 -15	0	-0	20.61 4.45006 1.43784 15.9595	-1.6527	-167.599	0 -30.3438 0 -0	24.5187	-0	0 -18.964 0 1.31547e-014	-3.39984e-015	-118.982	0 -9.48199 0 1.22245	4.37968	-2.58917e-014	0 -3.17138 0 -0	7.12502	-0	0 -9.48199 0 25	15	-1.36605e-015	0.0883157 12.5016 0.82912 15	0	-0	-20.61 4.45 1.44 -13.813	-5.70126	172.676	0 -29.5102 0 -0	25.6003	-0	0 -19.2342 0 1.00784e-015	-3.62321e-015	121.089	0 -9.61712 0 1.22	4.38	-0	0 -3.29215 0 -0	7.12502	-0	0 -9.61712 0 25	15	-7.97034e-015	-8.46272 -9.62775 4.76248 7.78692	-9.67327	-1.8289	1.00552e-005 -38.0331 0 -0	30.8742	-0	1.14428e-005 -43.2815 0 -43.868	-82.2021	-44.1335	0 -14.1868 -3.08763 -0	-20.1328	-0	9.10607 -9.62778 4.76249 6.398	-21.6093	3.28052	-1.01399e-005 -38.3535 0 -0	53.2244	-0	-1.12937e-005 -42.7176 0 39.2267	-73.8103	40.3668	0 -13.9965 -2.83857 -0	-39.0891	-0
1.67631	96.3514	53.1454	-3.08804	1.35266	3.06682	0 0 0 5.43145	-2.43971	0.0751296	-0.214371 12.3768 -1.12219 -0.541887	2.32028	-0.107375	-0.00137213 12.3873 0.296195 -3.62499	3.76267	0.102017	0.0883157 12.5016 0.82912 -6.85909	-9.23218	-4.93102	-1 10.1794 0.943522 12.7634	5.85866	-6.82627	0.667525 10.2797 -1.57149 4.4566	3.90843	-2.94745	0.0883157 12.5016 0.82912 -15	0	-0	20.61 4.45006 1.43784 15.9118	-1.66684	-167.58	0 -30.3438 0 -0	24.5079	-0	0 -18.964 0 1.31534e-014	-3.4023e-015	-119.005	0 -9.48199 0 1.22245	4.37968	-2.58917e-014	0 -3.17138 0 -0	7.12502	-0	0 -9.48199 0 25	15	-1.36605e-015	0.0883157 12.5016 0.82912 15	0	-0	-20.61 4.45 1.44 -13.8838	-5.79933	172.868	0 -29.5102 0 -0	25.7273	-0	0 -19.2342 0 1.00045e-015	-3.61093e-015	120.972	0 -9.61712 0 1.22	4.38	-0	0 -3.29215 0 -0	7.12502	-0	0 -9.61712 0 25	15	-7.97034e-015	-8.46272 -9.62775 4.76248 7.77037	-9.3613	-2.12389	1.00552e-005 -38.0331 0 -0	30.7855	-0	1.14428e-005 -43.2815 0 -42.8391	-82.5527	-43.0807	0 -14.1868 -3.08763 -0	-20.0324	-0	9.10607 -9.62778 4.76249 6.24066	-22.2199	3.25944	-1.01399e-005 -38.3535 0 -0	52.1806	-0	-1.12937e-005 -42.7176 0 40.9906	-73.9387	42.123	0 -13.9965 -2.83857 -0	-39.024	-0
1.6556	96.3343	53.5316	-3.12863	1.35085	3.06074	0 0 0 5.52967	-2.39299	0.11682	-0.214371 12.3768 -1.12219 -0.526474	2.31527	-0.0534076	-0.00137213 12.3873 0.296195 -3.65965	3.73699	0.130469	0.0883157 12.5016 0.82912 -6.88832	-9.22345	-4.94754	-1 10.1794 0.943522 12.7311	5.90394	-6.84649	0.667525 10.2797 -1.57149 4.44876	3.92182	-2.95877	0.0883157 12.5016 0.82912 -15	0	-0	20.61 4.45006 1.43784 15.8504	-1.67295	-167.55	0 -30.3438 0 -0	24.4944	-0	0 -18.964 0 1.31518e-014	-3.40509e-015	-119.031	0 -9.48199 0 1.22245	4.37968	-2.58917e-014	0 -3.17138 0 -0	7.12502	-0	0 -9.48199 0 25	15	-1.36605e-015	0.0883157 12.5016 0.82912 15	0	-0	-20.61 4.45 1.44 -13.956	-5.89479	173.053	0 -29.5102 0 -0	25.8554	-0	0 -19.2342 0 9.93654e-016	-3.59959e-015	120.864	0 -9.61712 0 1.22	4.38	-0	0 -3.29215 0 -0	7.12502	-0	0 -9.61712 0 25	15	-7.97034e-015	-8.46272 -9.62775 4.76248 7.7629	-9.02651	-2.41956	1.00552e-005 -38.0331 0 -0	30.6421	-0	1.14428e-005 -43.2815 0 -41.5784	-82.8713	-41.7988	0 -14.1868 -3.08763 -0	-19.9698	-0	9.10607 -9.62778 4.76249 6.0926	-22.7952	3.25126	-1.01399e-005 -38.3535 0 -0	51.0872	-0	-1.12937e-005 -42.7176 0 42.4244	-74.0439	43.5472	0 -13.9965 -2.83857 -0	-38.9504	-0
1.63665	96.3258	53.9229	-3.17644	1.35085	3.04965	0 0 0 5.62924	-2.35256	0.157215	-0.214371 12.3768 -1.12219 -0.505949	2.31144	-0.00174803	-0.00137213 12.3873 0.296195 -3.69002	3.71599	0.157883	0.0883157 12.5016 0.82912 -6.91857	-9.21509	-4.96244	-1 10.1794 0.943522 12.6996	5.94177	-6.86389	0.667525 10.2797 -1.57149 4.44176	3.93288	-2.96868	0.0883157 12.5016 0.82912 -15	0	-0	20.61 4.45006 1.43784 15.777	-1.66991	-167.513	0 -30.3438 0 -0	24.4797	-0	0 -18.964 0 1.31503e-014	-3.40787e-015	-119.057	0 -9.48199 0 1.22245	4.37968	-2.58917e-014	0 -3.17138 0 -0	7.12502	-0	0 -9.48199 0 25	15	-1.36605e-015	0.0883157 12.5016 0.82912 15	0	-0	-20.61 4.45 1.44 -14.0282	-5.98829	173.231	0 -29.5102 0 -0	25.9838	-0	0 -19.2342 0 9.87381e-016	-3.58907e-015	120.764	0 -9.61712 0 1.22	4.38	-0	0 -3.29215 0 -0	7.12502	-0	0 -9.61712 0 25	15	-7.97034e-015	-8.46272 -9.62775 4.76248 7.76638	-8.66928	-2.7095	1.00552e-005 -38.0331 0 -0	30.4439	-0	1.14428e-005 -43.2815 0 -40.1292	-83.1518	-40.331	0 -14.1868 -3.08763 -0	-19.9438	-0	9.10607 -9.62778 4.76249 5.9535	-23.3354	3.25744	-1.01399e-005 -38.3535 0 -0	49.9483	-0	-1.12937e-005 -42.7176 0 43.5297	-74.1315	44.6422	0 -13.9965 -2.83857 -0	-38.8687	-0
1.61702	96.3252	54.3161	-3.23089	1.35612	3.03448	0 0 0 5.72849	-2.31997	0.196064	-0.214371 12.3768 -1.12219 -0.48101	2.30882	0.0472492	-0.00137213 12.3873 0.296195 -3.71588	3.70053	0.184072	0.0883157 12.5016 0.82912 -6.94903	-9.20664	-4.97576	-1 10.1794 0.943522 12.67	5.97107	-6.87867	0.667525 10.2797 -1.57149 4.4358	3.94125	-2.97721	0.0883157 12.5016 0.82912 -15	0	-0	20.61 4.45006 1.43784 15.6934	-1.65659	-167.474	0 -30.3438 0 -0	24.465	-0	0 -18.964 0 1.3149e-014	-3.41023e-015	-119.079	0 -9.48199 0 1.22245	4.37968	-2.58917e-014	0 -3.17138 0 -0	7.12502	-0	0 -9.48199 0 25	15	-1.36605e-015	0.0883157 12.5016 0.82912 15	0	-0	-20.61 4.45 1.44 -14.0989	-6.08039	173.401	0 -29.5102 0 -0	26.1121	-0	0 -19.2342 0 9.81751e-016	-3.57959e-015	120.674	0 -9.61712 0 1.22	4.38	-0	0 -3.29215 0 -0	7.12502	-0	0 -9.61712 0 25	15	-7.97034e-015	-8.46272 -9.62775 4.76248 7.7822	-8.29105	-2.98819	1.00552e-005 -38.0331 0 -0	30.1928	-0	1.14428e-005 -43.2815 0 -38.5479	-83.3906	-38.7338	0 -14.1868 -3.08763 -0	-19.9511	-0	9.10607 -9.62778 4.76249 5.82288	-23.8414	3.27941	-1.01399e-005 -38.3535 0 -0	48.7688	-0	-1.12937e-005 -42.7176 0 44.3136	-74.2039	45.4164	0 -13.9965 -2.83857 -0	-38.7788	-0
1.59724	96.3319	54.7134	-3.29124	1.36669	3.01639	0 0 0 5.82614	-2.29648	0.233062	-0.214371 12.3768 -1.12219 -0.452488	2.30734	0.0931642	-0.00137213 12.3873 0.296195 -3.73741	3.69106	0.208818	0.0883157 12.5016 0.82912 -6.97876	-9.19773	-4.98751	-1 10.1794 0.943522 12.6433	5.99117	-6.89107	0.667525 10.2797 -1.57149 4.43103	3.94669	-2.98438	0.0883157 12.5016 0.82912 -15	0	-0	20.61 4.45006 1.43784 15.602	-1.63194	-167.435	0 -30.3438 0 -0	24.4515	-0	0 -18.964 0 1.3148e-014	-3.41194e-015	-119.095	0 -9.48199 0 1.22245	4.37968	-2.58917e-014	0 -3.17138 0 -0	7.12502	-0	0 -9.48199 0 25	15	-1.36605e-015	0.0883157 12.5016 0.82912 15	0	-0	-20.61 4.45 1.44 -14.1663	-6.17152	173.561	0 -29.5102 0 -0	26.2396	-0	0 -19.2342 0 9.76572e-016	-3.57085e-015	120.591	0 -9.61712 0 1.22	4.38	-0	0 -3.29215 0 -0	7.12502	-0	0 -9.61712 0 25	15	-7.97034e-015	-8.46272 -9.62775 4.76248 7.81118	-7.89421	-3.25127	1.00552e-005 -38.0331 0 -0	29.8924	-0	1.14428e-005 -43.2815 0 -36.8988	-83.5867	-37.0712	0 -14.1868 -3.08763 -0	-19.9866	-0	9.10607 -9.62778 4.76249 5.70024	-24.3152	3.31857	-1.01399e-005 -38.3535 0 -0	47.5542	-0	-1.12937e-005 -42.7176 0 44.7866	-74.2615	45.8812	0 -13.9965 -2.83857 -0	-38.6799	-0
1.5779	96.3445	55.1146	-3.35686	1.38343	2.99667	0 0 0 5.9213	-2.28295	0.267895	-0.214371 12.3768 -1.12219 -0.421294	2.30605	0.135581	-0.00137213 12.3873 0.296195 -3.75504	3.68762	0.231897	0.0883157 12.5016 0.82912 -7.00677	-9.18813	-4.99773	-1 10.1794 0.943522 12.62	6.00186	-6.90134	0.667525 10.2797 -1.57149 4.43118	3.94722	-2.99027	0.0883157 12.5016 0.82912 -15	0	-0	20.61 4.45006 1.43784 15.5054	-1.59509	-167.403	0 -30.3438 0 -0	24.4397	-0	0 -18.964 0 1.31475e-014	-3.41279e-015	-119.103	0 -9.48199 0 1.22245	4.37968	-2.58917e-014	0 -3.17138 0 -0	7.12502	-0	0 -9.48199 0 25	15	-1.36605e-015	0.0883157 12.5016 0.82912 15	0	-0	-20.61 4.45 1.44 -14.2288	-6.26192	173.713	0 -29.5102 0 -0	26.3655	-0	0 -19.2342 0 9.71903e-016	-3.56294e-015	120.516	0 -9.61712 0 1.22	4.38	-0	0 -3.29215 0 -0	7.12502	-0	0 -9.61712 0 25	15	-7.97034e-015	-8.46272 -9.62775 4.76248 7.85357	-7.48192	-3.49565	1.00552e-005 -38.0331 0 -0	29.5476	-0	1.14428e-005 -43.2815 0 -35.2459	-83.7419	-35.407	0 -14.1868 -3.08763 -0	-20.0446	-0	9.10607 -9.62778 4.76249 5.585	-24.7593	3.37627	-1.01399e-005 -38.3535 0 -0	46.3108	-0	-1.12937e-005 -42.7176 0 44.9615	-74.3033	46.0501	0 -13.9965 -2.83857 -0	-38.5706	-0
1.55759	96.3605	55.5179	-3.42712	1.40715	2.97648	0 0 0 6.01344	-2.27968	0.300293	-0.214371 12.3768 -1.12219 -0.388363	2.30478	0.17416	-0.00137213 12.3873 0.296195 -3.76949	3.68979	0.25312	0.0883157 12.5016 0.82912 -7.03209	-9.17777	-5.00648	-1 10.1794 0.943522 12.6008	6.00339	-6.90976	0.667525 10.2797 -1.57149 4.43135	3.94678	-2.99496	0.0883157 12.5016 0.82912 -15	0	-0	20.61 4.45006 1.43784 15.4058	-1.54533	-167.379	0 -30.3438 0 -0	24.43	-0	0 -18.964 0 1.31475e-014	-3.41279e-015	-119.103	0 -9.48199 0 1.22245	4.37968	-2.58917e-014	0 -3.17138 0 -0	7.12502	-0	0 -9.48199 0 25	15	-1.36605e-015	0.0883157 12.5016 0.82912 15	0	-0	-20.61 4.45 1.44 -14.2848	-6.35173	173.857	0 -29.5102 0 -0	26.4891	-0	0 -19.2342 0 9.67678e-016	-3.55576e-015	120.448	0 -9.61712 0 1.22	4.38	-0	0 -3.29215 0 -0	7.12502	-0	0 -9.61712 0 25	15	-7.97034e-015	-8.46272 -9.62775 4.76248 7.90901	-7.05789	-3.71946	1.00552e-005 -38.0331 0 -0	29.1647	-0	1.14428e-005 -43.2815 0 -33.6457	-83.8596	-33.7975	0 -14.1868 -3.08763 -0	-20.1191	-0	9.10607 -9.62778 4.76249 5.4766	-25.1767	3.45378	-1.01399e-005 -38.3535 0 -0	45.0452	-0	-1.12937e-005 -42.7176 0 44.8526	-74.3272	45.9379	0 -13.9965 -2.83857 -0	-38.4494	-0
1.53708	96.3784	55.9221	-3.50144	1.43847	2.95671	0 0 0 6.1023	-2.28639	0.330063	-0.214371 12.3768 -1.12219 -0.354607	2.30338	0.208703	-0.00137213 12.3873 0.296195 -3.78154	3.69673	0.272356	0.0883157 12.5016 0.82912 -7.05386	-9.16678	-5.01383	-1 10.1794 0.943522 12.5859	5.99645	-6.91657	0.667525 10.2797 -1.57149 4.43131	3.9455	-2.99514	0.0883157 12.5016 0.82912 -15	0	-0	20.61 4.45006 1.43784 15.3058	-1.48226	-167.367	0 -30.3438 0 -0	24.4223	-0	0 -18.964 0 1.31481e-014	-3.41173e-015	-119.093	0 -9.48199 0 1.22245	4.37968	-2.58917e-014	0 -3.17138 0 -0	7.12502	-0	0 -9.48199 0 25	15	-1.36605e-015	0.0883157 12.5016 0.82912 15	0	-0	-20.61 4.45 1.44 -14.333	-6.44086	173.994	0 -29.5102 0 -0	26.6097	-0	0 -19.2342 0 9.63772e-016	-3.54911e-015	120.385	0 -9.61712 0 1.22	4.38	-0	0 -3.29215 0 -0	7.12502	-0	0 -9.61712 0 25	15	-7.97034e-015	-8.46272 -9.62775 4.76248 7.97669	-6.62613	-3.92188	1.00552e-005 -38.0331 0 -0	28.7506	-0	1.14428e-005 -43.2815 0 -32.1425	-83.9448	-32.2866	0 -14.1868 -3.08763 -0	-20.2047	-0	9.10607 -9.62778 4.76249 5.37449	-25.5707	3.55225	-1.01399e-005 -38.3535 0 -0	43.7646	-0	-1.12937e-005 -42.7176 0 44.4744	-74.3311	45.5593	0 -13.9965 -2.83857 -0	-38.3143	-0
1.5153	96.3985	56.3284	-3.57915	1.47778	2.93781	0 0 0 6.18782	-2.30222	0.357135	-0.214371 12.3768 -1.12219 -0.320877	2.30169	0.2392	-0.00137213 12.3873 0.296195 -3.79203	3.70727	0.289564	0.0883157 12.5016 0.82912 -7.0714	-9.15542	-5.01986	-1 10.1794 0.943522 12.5753	5.98204	-6.922	0.667525 10.2797 -1.57149 4.43117	3.93998	-2.99527	0.0883157 12.5016 0.82912 -15	0	-0	20.61 4.45006 1.43784 15.2071	-1.40584	-167.369	0 -30.3438 0 -0	24.4158	-0	0 -18.964 0 1.31493e-014	-3.40969e-015	-119.074	0 -9.48199 0 1.22245	4.37968	-2.58917e-014	0 -3.17138 0 -0	7.12502	-0	0 -9.48199 0 25	15	-1.36605e-015	0.0883157 12.5016 0.82912 15	0	-0	-20.61 4.45 1.44 -14.3726	-6.52901	174.125	0 -29.5102 0 -0	26.7268	-0	0 -19.2342 0 9.60182e-016	-3.54298e-015	120.327	0 -9.61712 0 1.22	4.38	-0	0 -3.29215 0 -0	7.12502	-0	0 -9.61712 0 25	15	-7.97034e-015	-8.46272 -9.62775 4.76248 8.05533	-6.19061	-4.10287	1.00552e-005 -38.0331 0 -0	28.3129	-0	1.14428e-005 -43.2815 0 -30.7653	-84.0029	-30.9032	0 -14.1868 -3.08763 -0	-20.2968	-0	9.10607 -9.62778 4.76249 5.27811	-25.9444	3.67258	-1.01399e-005 -38.3535 0 -0	42.476	-0	-1.12937e-005 -42.7176 0 43.8423	-74.3132	44.9295	0 -13.9965 -2.83857 -0	-38.1634	-0
